<?xml version="1.0" standalone="no"?>
<!DOCTYPE svg PUBLIC "-//W3C//DTD SVG 20010904//EN"
 "http://www.w3.org/TR/2001/REC-SVG-20010904/DTD/svg10.dtd">
<svg version="1.0" xmlns="http://www.w3.org/2000/svg"
 width="512.000000pt" height="512.000000pt" viewBox="0 0 512.000000 512.000000"
 preserveAspectRatio="xMidYMid meet">

<g transform="translate(0.000000,512.000000) scale(0.100000,-0.100000)"
fill="#000000" stroke="none">
<path d="M1987 4876 c-152 -63 -243 -174 -270 -331 l-11 -64 -680 -4 c-743 -3
-719 -1 -817 -62 -62 -39 -97 -72 -136 -133 -73 -113 -67 36 -70 -1782 -2
-1007 0 -1661 6 -1704 24 -175 157 -318 329 -355 35 -7 217 -11 541 -11 l488
0 43 -51 c94 -112 222 -165 377 -157 80 5 213 43 1558 447 809 243 1495 454
1525 469 174 87 280 309 237 497 -28 125 -878 2948 -905 3005 -53 115 -193
223 -323 251 -115 25 -166 13 -756 -164 -303 -92 -556 -167 -561 -167 -5 0
-19 26 -30 58 -47 127 -154 231 -274 267 -80 24 -201 19 -271 -9z m248 -208
c76 -40 137 -164 89 -182 -9 -3 -103 -6 -210 -6 l-194 0 0 23 c1 29 32 96 59
125 66 68 170 85 256 40z m1667 -2 c49 -24 101 -82 121 -137 38 -100 887
-2954 887 -2979 0 -14 -7 -50 -16 -79 -18 -63 -90 -142 -145 -159 -19 -7 -686
-207 -1483 -447 -1075 -323 -1461 -435 -1499 -435 -80 0 -127 19 -183 75 -61
61 0 -129 -529 1636 -279 933 -415 1400 -415 1431 0 91 55 184 133 224 16 9
280 91 587 183 l558 168 4 -241 c3 -235 4 -242 29 -296 34 -74 76 -120 141
-156 48 -26 62 -29 148 -29 80 0 102 4 138 23 96 51 152 127 172 232 5 29 10
189 10 356 l0 302 33 11 c184 59 1139 340 1162 343 45 5 105 -6 147 -26z
m-2342 -405 c-8 -5 -193 -61 -410 -126 -217 -65 -424 -131 -460 -148 -122 -57
-217 -177 -250 -316 -28 -118 -31 -107 423 -1618 l424 -1413 -452 0 -453 0
-53 28 c-39 20 -62 41 -84 77 l-30 48 -3 1626 c-2 894 0 1645 3 1667 11 75 77
151 151 174 37 11 1214 12 1194 1z m788 -280 l-3 -290 -29 -30 c-25 -26 -37
-31 -76 -31 -39 0 -51 5 -76 31 l-29 30 -3 259 -3 259 93 30 c144 45 129 77
126 -258z"/>
</g>
</svg>
